<?xml version="1.0" standalone="no"?>
<!DOCTYPE svg PUBLIC "-//W3C//DTD SVG 20010904//EN"
 "http://www.w3.org/TR/2001/REC-SVG-20010904/DTD/svg10.dtd">
<svg version="1.0" xmlns="http://www.w3.org/2000/svg"
 width="1360.000000pt" height="1360.000000pt" viewBox="0 0 1360.000000 1360.000000"
 preserveAspectRatio="xMidYMid meet">
<metadata>
Created by potrace 1.11, written by Peter Selinger 2001-2013
</metadata>
<g transform="translate(0.000000,1360.000000) scale(0.100000,-0.100000)"
fill="#000000" stroke="none">
<path d="M1769 9598 c-1 -2 -2 -868 -3 -1924 l-1 -1922 -400 -396 c-220 -219
-433 -429 -472 -468 -40 -38 -73 -71 -73 -73 0 -1 -46 -48 -102 -103 -330
-325 -708 -702 -708 -707 0 -3 609 -5 1353 -5 l1352 0 427 424 428 424 4992 0
c2746 1 5003 1 5016 1 l22 1 0 720 0 720 -2695 2 -2696 3 268 267 c980 976
1177 1167 1191 1155 16 -13 464 -456 908 -898 l281 -279 1334 -1 c734 -1 1344
0 1356 0 23 1 -47 72 -1365 1379 -279 276 -658 653 -842 836 l-335 333 -1350
-1 -1350 -1 -167 -165 c-92 -91 -600 -596 -1130 -1122 -530 -526 -1088 -1081
-1241 -1232 l-278 -276 -231 0 -231 0 19 21 c10 12 54 56 96 98 213 212 1763
1749 2203 2186 278 276 505 503 505 505 0 3 -609 5 -1354 5 l-1354 0 -897
-890 c-494 -489 -916 -909 -938 -932 -22 -23 -43 -41 -46 -39 -3 2 -6 533 -6
1180 l0 1176 -742 0 c-409 0 -744 -1 -744 -2z"/>
<path d="M3630 4444 c0 -178 3 -192 41 -173 12 6 15 24 13 83 l-1 76 108 0
108 0 -2 -79 c-2 -67 0 -81 14 -84 42 -11 44 7 40 311 -1 35 -24 53 -43 34 -6
-6 -12 -39 -12 -74 l-1 -63 -105 0 -105 0 0 60 c0 68 -7 84 -35 82 -19 -1 -20
-9 -20 -173z"/>
<path d="M4864 4607 c-3 -8 -5 -21 -3 -28 1 -8 1 -31 0 -51 l-1 -38 -31 19
c-35 21 -78 19 -121 -7 -67 -39 -70 -168 -5 -214 35 -25 104 -31 134 -12 25
16 37 18 29 5 -3 -5 5 -11 19 -13 14 -3 25 -2 26 1 4 43 2 341 -3 341 -3 0
-13 3 -22 6 -9 4 -18 0 -22 -9z m-21 -146 c27 -26 28 -112 3 -140 -47 -52
-129 -20 -138 54 -4 42 12 92 35 103 30 15 76 7 100 -17z"/>
<path d="M6437 4612 c-15 -3 -18 -13 -16 -58 2 -29 0 -57 -4 -61 -4 -3 -7 -2
-7 4 0 14 -46 27 -84 25 -88 -6 -136 -101 -96 -188 29 -63 97 -88 165 -60 19
8 33 11 30 7 -2 -5 4 -11 15 -14 11 -3 23 -1 26 5 10 15 8 328 -2 337 -5 4
-17 6 -27 3z m-43 -144 c46 -41 39 -141 -11 -163 -26 -12 -35 -12 -64 -3 -34
11 -53 48 -52 99 2 76 74 114 127 67z"/>
<path d="M6683 4601 c3 -17 15 -44 102 -227 50 -106 54 -111 79 -107 21 4 33
19 57 72 17 36 52 111 79 166 36 76 45 102 35 108 -24 13 -43 -4 -69 -62 -14
-32 -26 -64 -26 -70 0 -6 -4 -11 -9 -11 -5 0 -11 -10 -14 -22 -3 -13 -16 -50
-30 -82 l-25 -59 -15 34 c-8 19 -24 59 -37 89 -12 30 -29 70 -37 88 -8 18 -20
47 -28 64 -9 24 -20 32 -39 34 -18 0 -25 -4 -23 -15z"/>
<path d="M8050 4594 c0 -13 5 -24 10 -24 6 0 13 -1 16 -2 4 -2 10 7 15 18 6
18 3 23 -17 27 -20 3 -24 0 -24 -19z"/>
<path d="M12249 4617 c-1 -1 -3 -80 -4 -174 -2 -141 0 -173 11 -173 21 0 29 4
27 13 -4 11 11 9 23 -3 19 -19 92 -22 124 -5 70 36 91 137 43 202 -36 47 -110
60 -159 28 -21 -14 -22 -13 -20 46 1 32 -1 59 -4 60 -3 0 -13 2 -22 4 -10 2
-19 3 -19 2z m155 -138 c28 -13 36 -29 43 -79 8 -67 -49 -119 -108 -98 -64 22
-68 146 -5 176 28 14 40 14 70 1z"/>
<path d="M12567 4606 c-2 -6 -2 -18 0 -27 6 -22 43 -12 43 11 0 20 -37 34 -43
16z"/>
<path d="M5318 4607 c0 -1 -2 -75 -3 -164 -2 -151 -1 -163 16 -163 10 0 20 8
22 18 4 14 2 272 -2 293 -1 7 -30 20 -33 16z"/>
<path d="M8203 4592 c-13 -9 -24 -29 -25 -44 -2 -18 -8 -28 -19 -28 -8 0 -16
-7 -16 -15 0 -14 10 -19 30 -16 4 0 7 -43 7 -98 0 -74 4 -102 15 -111 17 -14
83 -22 90 -10 7 12 -5 41 -15 35 -5 -3 -15 -2 -24 1 -13 5 -16 23 -16 94 0 88
0 88 24 86 37 -4 42 23 6 30 -26 6 -29 11 -32 50 -3 43 -3 43 -25 26z"/>
<path d="M12820 4591 c0 -24 10 -31 30 -22 26 10 21 41 -6 41 -17 0 -24 -6
-24 -19z"/>
<path d="M8358 4593 c-12 -3 -18 -14 -18 -33 0 -19 -7 -33 -20 -40 -26 -14
-26 -40 0 -35 18 3 19 -2 18 -90 0 -51 3 -98 7 -105 21 -35 107 -34 98 1 -3
10 -9 17 -13 14 -5 -3 -15 -2 -24 1 -13 5 -16 23 -16 94 0 87 0 88 24 86 19
-2 24 1 23 15 -1 13 -9 19 -24 19 -20 0 -23 5 -23 40 0 22 -3 39 -7 39 -5 -1
-16 -3 -25 -6z"/>
<path d="M8487 4594 c-3 -4 -4 -11 -1 -16 3 -5 6 -73 7 -151 2 -134 3 -142 22
-145 19 -3 20 3 19 155 0 149 -1 158 -20 161 -11 2 -23 0 -27 -4z"/>
<path d="M10833 4443 c2 -152 3 -158 23 -161 20 -3 21 1 22 105 0 59 1 117 1
128 3 58 -4 80 -26 83 -22 3 -22 2 -20 -155z"/>
<path d="M12693 4443 c2 -150 3 -158 22 -158 18 0 19 8 20 158 0 155 0 157
-22 157 -21 0 -22 -2 -20 -157z"/>
<path d="M4115 4520 c-32 -7 -74 -30 -76 -42 -8 -40 13 -45 51 -13 35 30 89
32 118 5 31 -30 23 -44 -29 -51 -96 -14 -109 -18 -133 -36 -32 -23 -35 -72 -6
-98 28 -25 118 -29 155 -6 28 16 30 16 47 -1 24 -24 46 -14 42 20 -2 15 -6 62
-8 104 -2 43 -9 84 -15 92 -19 23 -95 37 -146 26z m110 -148 c-2 -9 -4 -23 -4
-29 -1 -18 -44 -44 -81 -48 -21 -3 -37 2 -50 15 -34 34 -25 47 43 65 66 17 96
16 92 -3z"/>
<path d="M4434 4508 c-45 -22 -45 -22 -38 -3 5 11 -1 15 -18 15 -24 0 -24 0
-24 -124 -1 -110 1 -125 17 -129 29 -8 35 6 34 83 -2 106 10 126 76 135 51 7
65 -22 65 -132 -1 -68 2 -83 15 -86 30 -8 36 7 34 98 -2 112 -7 129 -48 146
-45 19 -69 18 -113 -3z"/>
<path d="M5065 4517 c-74 -24 -111 -107 -80 -182 36 -87 198 -98 250 -18 16
24 15 24 -25 27 -8 1 -24 -10 -36 -23 -28 -33 -85 -33 -119 -1 -15 14 -25 33
-23 44 3 19 10 20 109 18 l107 -2 -2 33 c-3 44 -24 74 -65 93 -43 21 -77 24
-116 11z m88 -36 c24 -9 45 -46 33 -58 -3 -3 -39 -6 -81 -7 -79 -1 -90 8 -55
45 27 29 62 35 103 20z"/>
<path d="M6017 4519 c-16 -4 -35 -13 -43 -20 -11 -9 -14 -8 -14 3 0 7 -10 15
-23 16 -23 1 -23 1 -24 -123 0 -109 2 -124 18 -128 29 -8 35 6 34 83 -2 75 12
123 37 133 21 7 79 0 91 -12 6 -6 11 -51 11 -106 l1 -95 26 0 26 0 -2 98 c-3
113 -12 137 -57 148 -50 12 -51 12 -81 3z"/>
<path d="M7118 4512 c-68 -30 -97 -132 -55 -196 34 -51 148 -71 205 -35 25 15
44 47 37 59 -10 17 -40 11 -52 -10 -16 -25 -70 -40 -102 -28 -30 11 -50 36
-51 63 0 19 6 20 110 19 l111 -2 -5 31 c-14 87 -113 136 -198 99z m124 -52
c17 -17 28 -33 25 -36 -7 -8 -141 -11 -160 -5 -15 6 -14 10 9 37 38 43 85 45
126 4z"/>
<path d="M7463 4519 c-12 -4 -26 -16 -32 -26 -11 -17 -11 -17 -9 2 2 15 -3 21
-22 23 l-25 3 1 -127 1 -127 26 -1 c25 -2 25 -1 26 77 1 126 11 143 76 131 16
-3 26 -2 22 2 -4 4 -2 13 4 20 11 14 10 15 -33 28 -7 2 -23 0 -35 -5z"/>
<path d="M7675 4522 c-10 -2 -29 -11 -42 -19 -21 -14 -23 -14 -23 1 0 10 -8
16 -22 16 -23 0 -23 -2 -21 -115 1 -63 2 -121 2 -129 1 -9 9 -12 26 -8 25 4
26 7 24 76 -1 84 7 122 29 132 74 32 97 4 97 -113 -1 -90 4 -104 34 -96 14 4
17 17 16 79 -1 78 14 133 37 135 7 0 21 2 32 4 48 9 63 -25 60 -137 -1 -67 1
-77 17 -81 28 -7 32 6 31 103 0 105 -5 123 -37 140 -47 25 -90 19 -137 -19
-12 -9 -18 -10 -18 -3 0 22 -64 43 -105 34z"/>
<path d="M9033 4517 c-18 -5 -33 -14 -33 -18 0 -5 -4 -9 -10 -9 -5 0 -10 7
-10 15 0 9 -9 15 -22 15 -23 0 -23 -2 -24 -124 -1 -113 1 -125 17 -129 27 -7
33 8 34 93 1 41 5 83 9 92 10 21 61 40 91 32 32 -8 38 -26 41 -114 2 -110 2
-109 22 -105 9 2 20 4 23 4 4 1 5 154 0 199 -1 14 -34 45 -53 48 -7 2 -22 5
-33 7 -11 2 -35 -1 -52 -6z"/>
<path d="M9329 4519 c-7 -4 -17 -5 -21 -3 -4 3 -8 1 -8 -5 0 -5 -8 -12 -18
-16 -11 -3 -25 -18 -32 -33 -16 -33 -22 -110 -8 -118 5 -3 13 -17 18 -30 5
-13 16 -24 25 -24 8 0 15 -4 15 -10 0 -14 103 -13 117 1 6 6 16 8 22 5 14 -9
-6 -64 -28 -75 -25 -14 -100 -7 -114 11 -19 24 -45 29 -49 10 -5 -22 36 -62
65 -63 93 -6 137 6 163 46 13 20 17 52 19 143 2 64 0 127 -2 140 -5 23 -38 31
-45 11 -2 -7 -13 -6 -33 2 -37 15 -70 18 -86 8z m92 -58 c23 -23 28 -36 25
-63 -2 -18 -4 -40 -5 -48 -2 -23 -56 -51 -87 -46 -38 7 -62 34 -67 76 -11 91
73 142 134 81z"/>
<path d="M10099 4520 c-66 -19 -105 -67 -97 -121 3 -16 1 -29 -4 -29 -5 0 1
-18 13 -40 36 -64 123 -88 196 -54 50 24 68 57 66 122 -1 44 -6 59 -28 83 -34
35 -98 52 -146 39z m92 -51 c16 -11 27 -24 24 -29 -3 -5 -1 -11 4 -14 9 -6 8
-48 -3 -84 -7 -22 -51 -50 -73 -46 -7 1 -20 2 -28 3 -9 0 -27 13 -41 28 -20
21 -24 36 -22 71 4 76 78 115 139 71z"/>
<path d="M10437 4519 c-16 -4 -35 -13 -43 -20 -11 -9 -14 -8 -14 3 0 9 -9 15
-22 14 -22 -1 -23 -4 -23 -115 0 -116 8 -147 36 -136 12 5 15 20 14 73 -2 110
20 155 75 149 58 -6 65 -18 67 -119 1 -51 2 -96 2 -99 1 -3 12 -4 25 -2 23 5
23 7 21 96 -1 51 -3 100 -4 109 -1 19 -50 49 -85 52 -12 2 -34 -1 -49 -5z"/>
<path d="M11047 4509 c-31 -17 -37 -17 -37 -4 0 8 -9 15 -19 15 -18 0 -20 -9
-23 -104 -4 -130 0 -151 30 -152 24 -1 24 2 23 123 0 63 21 94 67 99 48 5 61
-22 59 -129 -2 -77 0 -87 16 -87 30 0 32 4 33 70 1 36 3 70 4 75 1 6 3 15 4
20 3 26 25 46 55 50 54 6 64 -12 66 -121 1 -52 4 -96 6 -99 3 -2 14 -2 26 1
19 5 21 12 19 108 -2 107 -6 120 -51 143 -29 15 -86 6 -112 -19 -13 -12 -23
-17 -23 -11 0 12 -41 30 -80 37 -14 2 -42 -5 -63 -15z"/>
<path d="M11530 4509 c-33 -15 -40 -16 -40 -4 0 15 -39 22 -41 8 0 -5 -1 -61
-2 -126 -2 -117 1 -128 34 -120 12 4 16 21 17 90 1 69 5 90 19 104 26 26 65
32 87 16 17 -13 20 -27 20 -111 l1 -96 25 0 c26 0 26 1 25 78 -2 93 8 118 50
132 64 21 79 -3 78 -132 0 -78 8 -96 37 -78 17 11 15 193 -3 221 -26 42 -112
43 -159 1 -12 -10 -18 -11 -18 -3 0 12 -42 33 -72 36 -9 1 -35 -6 -58 -16z"/>
<path d="M11995 4517 c-54 -17 -82 -52 -89 -108 -14 -116 107 -184 221 -126
92 48 71 210 -30 233 -44 10 -73 11 -102 1z m106 -49 c26 -16 29 -25 29 -88 1
-64 -75 -106 -129 -71 -76 49 -46 180 40 177 19 0 46 -8 60 -18z"/>
<path d="M13015 4517 c-38 -12 -85 -63 -86 -94 -2 -41 -2 -47 6 -78 12 -49 57
-78 125 -80 48 -2 66 2 93 21 40 27 52 50 31 58 -26 10 -44 7 -44 -7 0 -19
-39 -38 -80 -39 -25 -1 -39 6 -57 26 -25 30 -30 56 -10 57 6 0 56 0 109 0 74
1 98 4 102 15 3 8 1 14 -4 14 -6 0 -9 3 -8 8 1 4 -3 21 -9 38 -18 51 -104 82
-168 61z m96 -40 c20 -15 41 -55 32 -59 -16 -7 -158 -3 -155 5 1 4 2 14 2 22
0 32 89 56 121 32z"/>
<path d="M13345 4510 c-28 -14 -35 -15 -39 -4 -3 8 -14 14 -24 14 -18 0 -19
-9 -19 -125 0 -125 6 -144 37 -125 9 6 13 28 12 72 -1 35 1 75 4 91 7 32 50
59 85 52 44 -9 52 -27 52 -123 0 -80 2 -91 19 -95 26 -7 34 17 33 103 -1 98
-17 137 -58 146 -53 12 -68 11 -102 -6z"/>
<path d="M5597 4513 c-2 -4 -3 -52 -3 -105 1 -87 4 -100 23 -120 30 -29 121
-32 151 -5 19 17 20 17 25 -2 3 -13 11 -18 24 -15 17 5 18 15 17 117 -2 145 0
137 -26 137 -22 0 -23 -4 -24 -92 -1 -82 -3 -93 -23 -110 -24 -19 -76 -24 -99
-9 -10 6 -15 38 -16 107 -3 91 -4 99 -23 102 -12 2 -23 0 -26 -5z"/>
<path d="M8617 4503 c-3 -10 -4 -58 -3 -106 2 -73 6 -92 23 -108 34 -34 139
-31 165 6 4 5 8 0 8 -11 0 -17 5 -20 23 -17 22 4 23 7 22 126 l0 122 -25 0
c-24 0 -25 -2 -25 -81 -1 -104 -18 -134 -74 -134 -56 0 -65 16 -66 123 -1 86
-2 92 -22 95 -14 2 -23 -3 -26 -15z"/>
<path d="M9726 4460 c14 -34 29 -69 33 -78 5 -9 20 -40 33 -67 12 -28 29 -50
36 -49 6 1 16 2 22 3 5 0 20 25 34 54 63 135 86 186 86 190 0 2 -12 4 -27 3
-19 -1 -29 -7 -31 -21 -2 -11 -10 -27 -17 -35 -8 -8 -13 -19 -13 -23 0 -4 -10
-33 -23 -63 l-22 -56 -42 99 c-36 85 -45 98 -68 101 l-26 3 25 -61z"/>
<path d="M8050 4396 c0 -63 4 -117 8 -120 4 -2 14 -1 22 4 13 8 13 22 11 193
-1 30 -5 37 -21 37 -19 0 -20 -7 -20 -114z"/>
<path d="M12569 4488 c-1 -32 -1 -179 0 -200 1 -9 8 -15 19 -14 15 3 17 17 20
119 3 112 2 117 -18 117 -14 0 -20 -7 -21 -22z"/>
<path d="M12820 4397 c0 -63 3 -117 6 -120 4 -3 14 -2 23 2 15 8 19 72 12 214
-1 10 -9 17 -21 17 -19 0 -20 -7 -20 -113z"/>
</g>
</svg>
