<?xml version="1.0" encoding="utf-8"?>
<!-- Generator: Adobe Illustrator 13.0.0, SVG Export Plug-In . SVG Version: 6.00 Build 14948)  -->
<!DOCTYPE svg PUBLIC "-//W3C//DTD SVG 1.1//EN" "http://www.w3.org/Graphics/SVG/1.1/DTD/svg11.dtd">
<svg version="1.1" id="Layer_1" xmlns="http://www.w3.org/2000/svg" xmlns:xlink="http://www.w3.org/1999/xlink" x="0px" y="0px"
	 width="250px" height="115px" viewBox="351.089 137.87 250 115" enable-background="new 351.089 137.87 250 115"
	 xml:space="preserve">
<g id="PathID_64" transform="matrix(1.35072, 0.0010023, -1.27123, -1.62923, 815.45, 300)">
	<path fill="#BABBBD" d="M-138.757,60.849l36.946,0.003l-4.693,31.957l-36.945-0.003L-138.757,60.849"/>
</g>
<g id="PathID_65" transform="matrix(1.35072, -0.000952591, -1.89658, 2.4307, 624.95, 54.6)">
	<path fill="#ED2A28" d="M-35.535,38.591l36.943,0.002L-5.59,70.55l-36.943-0.002L-35.535,38.591"/>
</g>
<g id="PathID_66" transform="matrix(5.43599, 0, 0, 0.927101, 204.75, 324)">
	<path fill="#231F20" d="M35.969-127.453H72.91v31.96H35.969V-127.453"/>
</g>
<g id="PathID_67" transform="matrix(0.742356, 0, 0, 2.77123, 136.75, 5)">
	<path fill="#231F20" d="M332.427,47.946h36.94v31.96h-36.94V47.946"/>
</g>
<g id="PathID_68" transform="matrix(1.35072, 0.000416822, -2.55914, 3.27985, 388.9, 52.7)">
	<path fill="#ED2A28" d="M97.044,29.054l36.94-0.001l-9.435,31.961l-36.94,0.001L97.044,29.054"/>
</g>
<g id="PathID_69" transform="matrix(0.8385, 0, 0, 0.917931, 272.45, 519.1)">
	<path fill="#231F20" d="M173.353-295.984v-7.809h1.194v3.195h4.678v-3.195h1.194v7.809h-1.194v-3.687h-4.678v3.687H173.353"/>
</g>
<g id="PathID_70" transform="matrix(0.8385, 0, 0, 0.917931, 303.4, 519.1)">
	<path fill="#231F20" d="M149.607-296.697c-0.412,0.312-0.809,0.532-1.194,0.66c-0.379,0.121-0.786,0.182-1.221,0.182
		c-0.714,0-1.264-0.151-1.649-0.448c-0.387-0.306-0.579-0.696-0.579-1.172c0-0.276,0.071-0.529,0.211-0.756
		c0.147-0.228,0.339-0.409,0.579-0.543c0.236-0.142,0.504-0.248,0.798-0.32c0.212-0.049,0.542-0.1,0.986-0.149
		c0.894-0.092,1.55-0.202,1.969-0.33l0.011-0.245c0-0.39-0.104-0.664-0.319-0.82c-0.28-0.221-0.699-0.331-1.255-0.331
		c-0.526,0-0.913,0.082-1.157,0.245c-0.247,0.157-0.427,0.433-0.543,0.831l-1.085-0.128c0.1-0.398,0.259-0.721,0.482-0.97
		c0.228-0.248,0.558-0.44,0.986-0.576c0.426-0.135,0.919-0.202,1.477-0.202c0.556,0,1.01,0.061,1.355,0.181
		c0.351,0.114,0.61,0.255,0.774,0.427c0.164,0.17,0.278,0.387,0.345,0.649c0.04,0.163,0.061,0.457,0.061,0.884v1.279
		c0,0.888,0.02,1.452,0.063,1.694c0.048,0.234,0.142,0.457,0.281,0.671h-1.158C149.713-296.182,149.639-296.421,149.607-296.697
		 M149.508-298.818c-0.401,0.143-1.007,0.263-1.809,0.362c-0.46,0.056-0.786,0.12-0.974,0.192c-0.188,0.071-0.332,0.177-0.432,0.32
		c-0.097,0.134-0.147,0.283-0.147,0.446c0,0.256,0.112,0.47,0.333,0.64c0.221,0.163,0.55,0.245,0.985,0.245
		c0.427,0,0.805-0.078,1.134-0.234c0.335-0.164,0.583-0.384,0.738-0.66c0.116-0.214,0.173-0.533,0.173-0.96V-298.818"/>
</g>
<g id="PathID_71" transform="matrix(0.8385, 0, 0, 0.917931, 327.15, 519.1)">
	<path fill="#231F20" d="M123.998-295.984v-5.658h0.995v0.812c0.478-0.627,1.166-0.939,2.071-0.939c0.393,0,0.755,0.064,1.083,0.191
		c0.336,0.121,0.586,0.281,0.751,0.48c0.164,0.198,0.278,0.432,0.345,0.703c0.04,0.177,0.061,0.49,0.061,0.937v3.473h-1.109v-3.442
		c0-0.39-0.044-0.681-0.133-0.874c-0.083-0.191-0.235-0.343-0.457-0.457c-0.221-0.12-0.481-0.181-0.776-0.181
		c-0.467,0-0.873,0.131-1.218,0.394c-0.339,0.256-0.506,0.746-0.506,1.47v3.09H123.998"/>
</g>
<g id="PathID_72" transform="matrix(0.8385, 0, 0, 0.917931, 350.95, 519.1)">
	<path fill="#231F20" d="M106.828-295.984v-0.713c-0.419,0.561-1.031,0.842-1.835,0.842c-0.519,0-0.998-0.124-1.441-0.373
		c-0.434-0.248-0.772-0.593-1.01-1.032c-0.237-0.45-0.356-0.963-0.356-1.545c0-0.562,0.108-1.073,0.321-1.534
		c0.219-0.462,0.55-0.815,0.985-1.056c0.434-0.249,0.919-0.373,1.452-0.373c0.393,0,0.742,0.075,1.047,0.224
		c0.312,0.142,0.566,0.329,0.763,0.564v-2.812h1.109v7.809H106.828 M103.331-298.796c0,0.724,0.176,1.263,0.529,1.619
		c0.353,0.355,0.772,0.532,1.257,0.532c0.483,0,0.895-0.17,1.23-0.51c0.346-0.342,0.518-0.864,0.518-1.567
		c0-0.775-0.176-1.342-0.53-1.704c-0.344-0.363-0.771-0.544-1.281-0.544c-0.492,0-0.902,0.174-1.232,0.523
		C103.495-300.101,103.331-299.55,103.331-298.796"/>
</g>
<g id="PathID_73" transform="matrix(0.8385, 0, 0, 0.917931, 374.75, 519.1)">
	<path fill="#231F20" d="M85.679-297.816l1.145,0.128c-0.179,0.582-0.515,1.034-1.009,1.353c-0.483,0.319-1.106,0.48-1.872,0.48
		c-0.951,0-1.706-0.253-2.265-0.757c-0.558-0.511-0.838-1.229-0.838-2.152c0-0.951,0.28-1.69,0.838-2.216
		c0.567-0.526,1.301-0.788,2.204-0.788c0.879,0,1.593,0.259,2.144,0.778c0.558,0.511,0.836,1.236,0.836,2.173l-0.012,0.245h-4.864
		c0.032,0.625,0.229,1.104,0.592,1.438c0.369,0.327,0.828,0.489,1.38,0.489c0.401,0,0.747-0.092,1.034-0.277
		C85.278-297.106,85.507-297.404,85.679-297.816 M82.047-299.361h3.644c-0.048-0.47-0.188-0.824-0.417-1.065
		c-0.353-0.37-0.813-0.555-1.38-0.555c-0.507,0-0.934,0.151-1.281,0.447C82.268-300.242,82.081-299.851,82.047-299.361"/>
</g>
<g id="PathID_74" transform="matrix(0.8385, 0, 0, 0.917931, 398.55, 519.1)">
	<path fill="#231F20" d="M59.793-295.984v-7.809H60.9v7.809H59.793"/>
</g>
<g id="PathID_75" transform="matrix(0.8385, 0, 0, 0.917931, 419.85, 519.1)">
	<path fill="#231F20" d="M44.955-295.984v-0.831c-0.509,0.639-1.203,0.959-2.081,0.959c-0.386,0-0.747-0.064-1.085-0.192
		c-0.327-0.128-0.574-0.288-0.738-0.479c-0.165-0.192-0.281-0.43-0.344-0.714c-0.041-0.185-0.063-0.483-0.063-0.895v-3.505h1.109
		v3.144c0,0.497,0.019,0.834,0.063,1.012c0.066,0.248,0.208,0.443,0.429,0.586c0.23,0.142,0.514,0.212,0.85,0.212
		c0.33,0,0.638-0.071,0.925-0.212c0.295-0.149,0.504-0.348,0.627-0.597c0.123-0.255,0.183-0.624,0.183-1.107v-3.037h1.109v5.658
		H44.955"/>
</g>
<g id="PathID_76" transform="matrix(0.8385, 0, 0, 0.917931, 443.6, 519.1)">
	<path fill="#231F20" d="M19.321-295.984v-5.658h0.997v0.812c0.477-0.627,1.166-0.939,2.07-0.939c0.392,0,0.754,0.064,1.083,0.191
		c0.335,0.121,0.586,0.281,0.749,0.48c0.165,0.198,0.28,0.432,0.346,0.703c0.042,0.177,0.061,0.49,0.061,0.937v3.473h-1.109v-3.442
		c0-0.39-0.045-0.681-0.136-0.874c-0.081-0.191-0.233-0.343-0.455-0.457c-0.221-0.12-0.479-0.181-0.775-0.181
		c-0.468,0-0.874,0.131-1.218,0.394c-0.338,0.256-0.507,0.746-0.507,1.47v3.09H19.321"/>
</g>
<g id="PathID_77" transform="matrix(0.8385, 0, 0, 0.917931, 467.4, 519.1)">
	<path fill="#231F20" d="M2.151-295.984v-0.713c-0.418,0.561-1.03,0.842-1.835,0.842c-0.518,0-0.998-0.124-1.441-0.373
		c-0.436-0.248-0.771-0.593-1.01-1.032c-0.236-0.45-0.357-0.963-0.357-1.545c0-0.562,0.107-1.073,0.321-1.534
		c0.221-0.462,0.55-0.815,0.986-1.056c0.434-0.249,0.918-0.373,1.452-0.373c0.392,0,0.742,0.075,1.046,0.224
		c0.312,0.142,0.567,0.329,0.763,0.564v-2.812h1.109v7.809H2.151 M-1.346-298.796c0,0.724,0.176,1.263,0.529,1.619
		c0.354,0.355,0.773,0.532,1.257,0.532c0.483,0,0.894-0.17,1.23-0.51c0.346-0.342,0.518-0.864,0.518-1.567
		c0-0.775-0.176-1.342-0.53-1.704c-0.344-0.363-0.771-0.544-1.281-0.544c-0.493,0-0.903,0.174-1.232,0.523
		C-1.181-300.101-1.346-299.55-1.346-298.796"/>
</g>
<g id="PathID_78" transform="matrix(0.8385, 0, 0, 0.917931, 503, 519.1)">
	<path fill="#231F20" d="M-31.365-295.984l-3.508-7.809h1.305l2.338,5.678c0.189,0.454,0.349,0.88,0.481,1.279
		c0.14-0.426,0.304-0.853,0.494-1.279l2.436-5.678h1.221l-3.549,7.809H-31.365"/>
</g>
<g id="PathID_79" transform="matrix(0.8385, 0, 0, 0.917931, 529.1, 519.1)">
	<path fill="#231F20" d="M-53.064-297.816l1.145,0.128c-0.182,0.582-0.518,1.034-1.01,1.353c-0.486,0.319-1.109,0.48-1.872,0.48
		c-0.954,0-1.709-0.253-2.267-0.757c-0.559-0.511-0.836-1.229-0.836-2.152c0-0.951,0.277-1.689,0.836-2.216
		c0.566-0.526,1.301-0.788,2.204-0.788c0.878,0,1.591,0.259,2.143,0.778c0.557,0.511,0.838,1.236,0.838,2.173l-0.013,0.245h-4.865
		c0.036,0.626,0.232,1.105,0.592,1.438c0.37,0.327,0.83,0.489,1.38,0.489c0.403,0,0.747-0.092,1.034-0.277
		C-53.466-297.106-53.236-297.404-53.064-297.816 M-56.697-299.361h3.645c-0.048-0.47-0.189-0.824-0.419-1.065
		c-0.352-0.37-0.814-0.555-1.378-0.555c-0.511,0-0.938,0.151-1.282,0.447C-56.475-300.242-56.664-299.851-56.697-299.361"/>
</g>
<g id="PathID_80" transform="matrix(0.8385, 0, 0, 0.917931, 552.9, 519.1)">
	<path fill="#231F20" d="M-78.941-295.984v-5.658h0.998v0.863c0.248-0.405,0.475-0.671,0.69-0.799
		c0.22-0.128,0.46-0.191,0.713-0.191c0.378,0,0.761,0.103,1.144,0.309l-0.391,0.895c-0.263-0.141-0.532-0.213-0.802-0.213
		c-0.247,0-0.469,0.064-0.664,0.192c-0.189,0.128-0.325,0.302-0.406,0.522c-0.116,0.342-0.171,0.714-0.171,1.119v2.962H-78.941"/>
</g>
<g id="PathID_81" transform="matrix(0.8385, 0, 0, 0.917931, 567.05, 519.1)">
	<path fill="#231F20" d="M-91.658-295.984v-5.658h0.983v0.799c0.207-0.276,0.477-0.5,0.814-0.671
		c0.344-0.17,0.739-0.256,1.181-0.256c0.484,0,0.88,0.089,1.182,0.265c0.313,0.171,0.534,0.414,0.666,0.726
		c0.515-0.66,1.194-0.991,2.032-0.991c0.648,0,1.15,0.157,1.502,0.469c0.351,0.313,0.53,0.793,0.53,1.438v3.878h-1.109v-3.559
		c0-0.384-0.036-0.66-0.111-0.831c-0.073-0.171-0.205-0.305-0.392-0.405c-0.192-0.106-0.412-0.16-0.667-0.16
		c-0.459,0-0.845,0.135-1.158,0.404c-0.303,0.263-0.455,0.686-0.455,1.269v3.281h-1.109v-3.675c0-0.426-0.089-0.746-0.271-0.96
		c-0.18-0.211-0.475-0.319-0.887-0.319c-0.312,0-0.603,0.071-0.875,0.213c-0.26,0.142-0.454,0.352-0.578,0.629
		c-0.113,0.27-0.172,0.663-0.172,1.182v2.929H-91.658"/>
</g>
<g id="PathID_82" transform="matrix(0.8385, 0, 0, 0.917931, 602.65, 519.1)">
	<path fill="#231F20" d="M-123.649-302.696v-1.097h1.109v1.097H-123.649 M-123.649-295.984v-5.658h1.109v5.658H-123.649"/>
</g>
<g id="PathID_83" transform="matrix(0.8385, 0, 0, 0.917931, 612.1, 519.1)">
	<path fill="#231F20" d="M-129.73-296.836l0.147,0.842c-0.31,0.057-0.589,0.085-0.838,0.085c-0.399,0-0.713-0.053-0.935-0.16
		c-0.222-0.112-0.377-0.259-0.468-0.437c-0.091-0.177-0.135-0.553-0.135-1.128v-3.261h-0.826v-0.746h0.826v-1.395l1.108-0.575v1.97
		h1.12v0.746h-1.12v3.314c0,0.269,0.018,0.443,0.049,0.521c0.04,0.078,0.105,0.142,0.196,0.191c0.091,0.043,0.219,0.064,0.383,0.064
		C-130.098-296.805-129.933-296.815-129.73-296.836"/>
</g>
<g id="PathID_84" transform="matrix(0.8385, 0, 0, 0.917931, 623.95, 519.1)">
	<path fill="#231F20" d="M-140.381-296.836l0.147,0.842c-0.312,0.057-0.59,0.085-0.838,0.085c-0.399,0-0.715-0.053-0.934-0.16
		c-0.223-0.112-0.379-0.259-0.468-0.437c-0.091-0.177-0.136-0.553-0.136-1.128v-3.261h-0.826v-0.746h0.826v-1.395l1.106-0.575v1.97
		h1.122v0.746h-1.122v3.314c0,0.269,0.016,0.443,0.051,0.521c0.04,0.078,0.104,0.142,0.196,0.191
		c0.091,0.043,0.216,0.064,0.382,0.064C-140.752-296.805-140.585-296.815-140.381-296.836"/>
</g>
<g id="PathID_85" transform="matrix(0.8385, 0, 0, 0.917931, 635.75, 519.1)">
	<path fill="#231F20" d="M-153.426-295.984v-7.809h1.108v7.809H-153.426"/>
</g>
<g id="PathID_86" transform="matrix(0.8385, 0, 0, 0.917931, 645.2, 519.1)">
	<path fill="#231F20" d="M-157.611-295.984v-0.831c-0.51,0.639-1.204,0.959-2.081,0.959c-0.385,0-0.748-0.064-1.084-0.192
		c-0.328-0.128-0.574-0.288-0.738-0.479c-0.164-0.192-0.28-0.43-0.344-0.714c-0.044-0.185-0.063-0.483-0.063-0.895v-3.505h1.109
		v3.144c0,0.497,0.02,0.834,0.061,1.012c0.068,0.248,0.21,0.443,0.432,0.586c0.23,0.142,0.514,0.212,0.85,0.212
		c0.327,0,0.635-0.071,0.922-0.212c0.296-0.149,0.505-0.348,0.63-0.597c0.121-0.255,0.184-0.624,0.184-1.107v-3.037h1.11v5.658
		H-157.611"/>
</g>
<g id="PathID_87" transform="matrix(0.8385, 0, 0, 0.917931, 669, 519.1)">
	<path fill="#231F20" d="M-183.291-295.984v-5.658h0.999v0.812c0.475-0.627,1.166-0.939,2.067-0.939
		c0.396,0,0.758,0.064,1.085,0.191c0.337,0.121,0.587,0.281,0.751,0.48c0.163,0.198,0.28,0.432,0.345,0.703
		c0.042,0.177,0.063,0.49,0.063,0.937v3.473h-1.11v-3.442c0-0.39-0.044-0.681-0.136-0.874c-0.08-0.191-0.232-0.343-0.455-0.457
		c-0.221-0.12-0.479-0.181-0.775-0.181c-0.468,0-0.876,0.131-1.222,0.394c-0.334,0.256-0.504,0.746-0.504,1.47v3.09H-183.291"/>
</g>
<g id="PathID_88" transform="matrix(0.8385, 0, 0, 0.917931, 692.8, 519.1)">
	<path fill="#231F20" d="M-204.892-295.516l1.084,0.128c0.042,0.291,0.162,0.505,0.369,0.639c0.271,0.178,0.644,0.267,1.12,0.267
		c0.508,0,0.904-0.088,1.183-0.267c0.277-0.177,0.467-0.426,0.565-0.745c0.058-0.191,0.086-0.604,0.086-1.237
		c-0.484,0.498-1.087,0.747-1.81,0.747c-0.9,0-1.6-0.281-2.094-0.842c-0.484-0.56-0.728-1.231-0.728-2.013
		c0-0.539,0.112-1.036,0.334-1.49c0.228-0.462,0.557-0.818,0.984-1.067c0.427-0.248,0.933-0.373,1.516-0.373
		c0.77,0,1.409,0.274,1.908,0.821v-0.694h1.024v4.901c0,0.881-0.108,1.502-0.321,1.864c-0.206,0.369-0.532,0.661-0.985,0.874
		c-0.444,0.213-0.993,0.319-1.649,0.319c-0.78,0-1.413-0.153-1.896-0.458C-204.68-294.44-204.908-294.898-204.892-295.516
		 M-203.969-298.903c0,0.738,0.167,1.279,0.505,1.62c0.335,0.333,0.763,0.5,1.279,0.5c0.51,0,0.936-0.167,1.28-0.5
		c0.347-0.341,0.518-0.875,0.518-1.6c0-0.689-0.179-1.206-0.543-1.555c-0.351-0.355-0.777-0.533-1.28-0.533
		c-0.491,0-0.911,0.174-1.254,0.523C-203.802-300.101-203.969-299.585-203.969-298.903"/>
</g>
<g id="PathID_89" transform="matrix(0.8385, 0, 0, 0.917931, 728.4, 519.1)">
	<path fill="#231F20" d="M-234.884-295.984l-2.49-5.658h1.182l1.403,3.389c0.149,0.369,0.289,0.748,0.42,1.139
		c0.098-0.298,0.239-0.656,0.418-1.075l1.453-3.453h1.146l-2.488,5.658H-234.884"/>
</g>
<g id="PathID_90" transform="matrix(0.8385, 0, 0, 0.917931, 749.85, 519.1)">
	<path fill="#231F20" d="M-256.382-298.806c0-1.052,0.334-1.829,1.006-2.334c0.559-0.419,1.245-0.629,2.06-0.629
		c0.894,0,1.627,0.256,2.202,0.768c0.575,0.511,0.863,1.214,0.863,2.109c0,0.731-0.128,1.306-0.382,1.726
		c-0.256,0.412-0.624,0.735-1.11,0.969c-0.484,0.227-1.011,0.342-1.573,0.342c-0.921,0-1.664-0.253-2.231-0.757
		C-256.105-297.124-256.382-297.855-256.382-298.806 M-255.238-298.806c0,0.723,0.181,1.267,0.54,1.629
		c0.363,0.355,0.822,0.532,1.382,0.532c0.549,0,1.004-0.177,1.365-0.532c0.372-0.362,0.554-0.917,0.554-1.662
		c0-0.695-0.183-1.225-0.554-1.587c-0.372-0.363-0.825-0.544-1.365-0.544c-0.56,0-1.018,0.181-1.382,0.544
		C-255.058-300.071-255.238-299.531-255.238-298.806"/>
</g>
<g id="PathID_91" transform="matrix(0.8385, 0, 0, 0.917931, 773.65, 519.1)">
	<path fill="#231F20" d="M-277.36-295.984v-5.658h0.998v0.812c0.478-0.627,1.166-0.939,2.071-0.939c0.392,0,0.755,0.064,1.081,0.191
		c0.337,0.121,0.589,0.281,0.752,0.48c0.163,0.198,0.28,0.432,0.345,0.703c0.043,0.177,0.063,0.49,0.063,0.937v3.473h-1.109v-3.442
		c0-0.39-0.045-0.681-0.137-0.874c-0.079-0.191-0.231-0.343-0.454-0.457c-0.221-0.12-0.479-0.181-0.774-0.181
		c-0.469,0-0.875,0.131-1.218,0.394c-0.339,0.256-0.507,0.746-0.507,1.47v3.09H-277.36"/>
</g>
<g id="PathID_92" transform="matrix(0.8385, 0, 0, 0.917931, 809.25, 519.1)">
	<path fill="#231F20" d="M-309.013-295.984v-7.809h1.194v7.809H-309.013"/>
</g>
<g id="PathID_93" transform="matrix(0.8385, 0, 0, 0.917931, 821.05, 519.1)">
	<path fill="#231F20" d="M-319.977-295.984v-5.658h0.985v0.799c0.204-0.276,0.474-0.5,0.811-0.671
		c0.347-0.17,0.74-0.256,1.182-0.256c0.487,0,0.878,0.089,1.184,0.265c0.311,0.171,0.533,0.414,0.663,0.726
		c0.519-0.66,1.195-0.991,2.032-0.991c0.65,0,1.151,0.157,1.502,0.469c0.353,0.313,0.53,0.793,0.53,1.438v3.878h-1.11v-3.559
		c0-0.384-0.035-0.66-0.109-0.831c-0.073-0.171-0.206-0.305-0.392-0.405c-0.19-0.106-0.413-0.16-0.667-0.16
		c-0.459,0-0.844,0.135-1.159,0.404c-0.302,0.263-0.454,0.686-0.454,1.269v3.281h-1.106v-3.675c0-0.426-0.091-0.746-0.271-0.96
		c-0.179-0.211-0.478-0.319-0.886-0.319c-0.312,0-0.603,0.071-0.875,0.213c-0.264,0.142-0.454,0.352-0.579,0.629
		c-0.115,0.27-0.172,0.663-0.172,1.182v2.929H-319.977"/>
</g>
<g id="PathID_94" transform="matrix(0.8385, 0, 0, 0.917931, 856.65, 519.1)">
	<path fill="#231F20" d="M-351.979-295.984v-5.658h0.985v0.799c0.206-0.276,0.476-0.5,0.812-0.671
		c0.346-0.17,0.738-0.256,1.182-0.256c0.484,0,0.878,0.089,1.183,0.265c0.313,0.171,0.532,0.414,0.665,0.726
		c0.516-0.66,1.195-0.991,2.032-0.991c0.646,0,1.147,0.157,1.501,0.469c0.354,0.313,0.531,0.793,0.531,1.438v3.878h-1.11v-3.559
		c0-0.384-0.037-0.66-0.112-0.831c-0.072-0.171-0.204-0.305-0.392-0.405c-0.191-0.106-0.411-0.16-0.666-0.16
		c-0.46,0-0.846,0.135-1.158,0.404c-0.302,0.263-0.454,0.686-0.454,1.269v3.281h-1.106v-3.675c0-0.426-0.093-0.746-0.273-0.96
		c-0.182-0.211-0.476-0.319-0.886-0.319c-0.314,0-0.604,0.071-0.875,0.213c-0.262,0.142-0.458,0.352-0.578,0.629
		c-0.116,0.27-0.175,0.663-0.175,1.182v2.929H-351.979"/>
</g>
<g id="PathID_95" transform="matrix(0.8385, 0, 0, 0.917931, 892.25, 519.1)">
	<path fill="#231F20" d="M-384.386-298.806c0-1.052,0.335-1.829,1.011-2.334c0.559-0.419,1.242-0.629,2.054-0.629
		c0.896,0,1.629,0.256,2.206,0.768c0.573,0.511,0.861,1.214,0.861,2.109c0,0.731-0.127,1.306-0.382,1.726
		c-0.254,0.412-0.623,0.735-1.106,0.969c-0.486,0.228-1.01,0.342-1.578,0.342c-0.919,0-1.662-0.253-2.228-0.757
		C-384.106-297.124-384.386-297.855-384.386-298.806 M-383.24-298.806c0,0.723,0.179,1.267,0.542,1.629
		c0.361,0.355,0.82,0.532,1.378,0.532c0.552,0,1.006-0.177,1.367-0.532c0.37-0.362,0.554-0.917,0.554-1.662
		c0-0.695-0.184-1.225-0.554-1.587c-0.368-0.363-0.823-0.544-1.367-0.544c-0.558,0-1.017,0.181-1.378,0.544
		C-383.061-300.071-383.24-299.531-383.24-298.806"/>
</g>
<g id="PathID_96" transform="matrix(0.8385, 0, 0, 0.917931, 916.05, 519.1)">
	<path fill="#231F20" d="M-404.362-295.984h-1.023v-7.809h1.108v2.791c0.466-0.512,1.062-0.768,1.784-0.768
		c0.403,0,0.785,0.071,1.145,0.214c0.363,0.141,0.658,0.34,0.886,0.596c0.232,0.249,0.411,0.554,0.543,0.916
		c0.14,0.355,0.211,0.739,0.211,1.151c0,0.967-0.278,1.715-0.839,2.248c-0.558,0.526-1.229,0.789-2.007,0.789
		c-0.772,0-1.374-0.278-1.809-0.832V-295.984 M-404.377-298.849c0,0.674,0.107,1.164,0.323,1.47c0.345,0.49,0.815,0.735,1.415,0.735
		c0.484,0,0.904-0.181,1.255-0.543c0.355-0.362,0.531-0.906,0.531-1.63c0-0.738-0.172-1.283-0.518-1.629
		c-0.337-0.355-0.743-0.534-1.218-0.534c-0.486,0-0.903,0.185-1.257,0.555C-404.199-300.064-404.377-299.538-404.377-298.849"/>
</g>
<g id="PathID_97" transform="matrix(0.8385, 0, 0, 0.917931, 939.85, 519.1)">
	<path fill="#231F20" d="M-426.754-302.696v-1.097h1.106v1.097H-426.754 M-426.754-295.984v-5.658h1.106v5.658H-426.754"/>
</g>
<g id="PathID_98" transform="matrix(0.8385, 0, 0, 0.917931, 949.3, 519.1)">
	<path fill="#231F20" d="M-435.272-295.984v-7.809h1.106v7.809H-435.272"/>
</g>
<g id="PathID_99" transform="matrix(0.8385, 0, 0, 0.917931, 958.8, 519.1)">
	<path fill="#231F20" d="M-443.788-302.696v-1.097h1.108v1.097H-443.788 M-443.788-295.984v-5.658h1.108v5.658H-443.788"/>
</g>
<g id="PathID_100" transform="matrix(0.8385, 0, 0, 0.917931, 968.25, 519.1)">
	<path fill="#231F20" d="M-447.813-297.816l1.146,0.128c-0.183,0.582-0.518,1.034-1.011,1.353c-0.486,0.319-1.108,0.48-1.872,0.48
		c-0.953,0-1.707-0.253-2.265-0.757c-0.559-0.511-0.84-1.229-0.84-2.152c0-0.951,0.281-1.69,0.84-2.216
		c0.566-0.526,1.3-0.788,2.204-0.788c0.878,0,1.592,0.259,2.143,0.778c0.558,0.511,0.837,1.236,0.837,2.173l-0.012,0.245h-4.866
		c0.035,0.625,0.232,1.104,0.593,1.438c0.369,0.327,0.828,0.489,1.379,0.489c0.403,0,0.748-0.092,1.034-0.277
		C-448.216-297.106-447.984-297.404-447.813-297.816 M-451.445-299.361h3.644c-0.048-0.47-0.186-0.824-0.419-1.065
		c-0.351-0.37-0.813-0.555-1.378-0.555c-0.509,0-0.936,0.151-1.28,0.447C-451.225-300.242-451.414-299.851-451.445-299.361"/>
</g>
<g id="PathID_101" transform="matrix(0.8385, 0, 0, 0.917931, 992.05, 519.1)">
	<path fill="#231F20" d="M-473.676-295.984v-5.658h0.997v0.812c0.476-0.627,1.167-0.939,2.068-0.939
		c0.395,0,0.757,0.064,1.083,0.191c0.338,0.121,0.588,0.281,0.754,0.48c0.163,0.198,0.278,0.432,0.342,0.703
		c0.041,0.177,0.064,0.49,0.064,0.937v3.473h-1.109v-3.442c0-0.39-0.047-0.681-0.136-0.874c-0.083-0.191-0.234-0.343-0.455-0.457
		c-0.224-0.12-0.479-0.181-0.777-0.181c-0.469,0-0.873,0.131-1.219,0.394c-0.335,0.256-0.505,0.746-0.505,1.47v3.09H-473.676"/>
</g>
<g id="PathID_102" transform="matrix(1.61146, 0, 0, 1.48451, 401.3, 421.45)">
	<path fill="#FFFFFF" d="M36.226-132.15v0.895h-5.985v-9.705h1.834v8.81H36.226"/>
</g>
<g id="PathID_103" transform="matrix(1.61146, 0, 0, 1.48451, 443.95, 421.45)">
	<path fill="#FFFFFF" d="M10.169-131.255v-7.298h1.835v7.298H10.169 M12.004-139.564h-1.835v-1.396h1.835V-139.564"/>
</g>
<g id="PathID_104" transform="matrix(1.61146, 0, 0, 1.48451, 463.35, 421.45)">
	<path fill="#FFFFFF" d="M8.102-131.255H6.267v-6.424h-3.3v6.424H1.133v-7.318h9.333c0.862,0,1.495,0.088,1.897,0.266
		c0.591,0.234,0.887,0.749,0.887,1.544v5.508h-1.836v-6.094c0-0.177-0.09-0.284-0.27-0.319l-0.678-0.011H8.102V-131.255"/>
</g>
<g id="PathID_105" transform="matrix(1.61146, 0, 0, 1.48451, 550.4, 421.45)">
	<path fill="#FFFFFF" d="M-36.862-131.255c-0.861,0-1.494-0.089-1.896-0.266c-0.583-0.235-0.874-0.75-0.874-1.545v-0.415
		c0-0.796,0.291-1.31,0.874-1.545c0.402-0.177,1.035-0.266,1.896-0.266h2.364v-2.056c0-0.177-0.09-0.284-0.271-0.319l-0.665-0.011
		h-1.429c-0.452,0-0.722,0.014-0.813,0.043c-0.082,0.035-0.122,0.131-0.122,0.287v1.098h-1.835v-0.511
		c0-0.795,0.291-1.31,0.874-1.544c0.402-0.178,1.035-0.266,1.896-0.266h1.429c0.861,0,1.494,0.088,1.896,0.266
		c0.583,0.234,0.875,0.749,0.875,1.544v5.508H-36.862 M-36.862-134.397c-0.452,0-0.722,0.018-0.813,0.053
		c-0.082,0.029-0.122,0.121-0.122,0.277v1.598c0,0.178,0.086,0.281,0.257,0.309l0.678,0.011h2.364v-2.247H-36.862"/>
</g>
<g id="PathID_106" transform="matrix(1.61146, 0, 0, 1.48451, 603.4, 421.45)">
	<path fill="#FFFFFF" d="M-62.539-131.255h-1.835v-7.318h4.2c0.861,0,1.494,0.088,1.897,0.266c0.582,0.234,0.874,0.749,0.874,1.544
		v5.508h-1.835v-6.094c0-0.177-0.086-0.284-0.258-0.319l-0.678-0.011h-2.365V-131.255"/>
</g>
<g id="PathID_107" transform="matrix(1.61146, 0, 0, 1.48451, 656.85, 421.45)">
	<path fill="#FFFFFF" d="M-89.411-131.255v-7.298h1.836v7.298H-89.411 M-87.575-139.564h-1.836v-1.396h1.836V-139.564"/>
</g>
<g id="PathID_108" transform="matrix(1.61146, 0, 0, 1.48451, 716.65, 421.45)">
	<path fill="#FFFFFF" d="M-117.356-132.161h0.936v-7.893h-0.936v-0.906h3.706v0.906h-0.936v7.893h0.936v0.906h-3.706V-132.161"/>
</g>
<g id="PathID_109" transform="matrix(1.61146, 0, 0, 1.48451, 747.6, 421.45)">
	<path fill="#FFFFFF" d="M-124.85-131.255h-1.834v-6.424h-3.301v6.424h-1.834v-7.318h9.334c0.863,0,1.495,0.088,1.896,0.266
		c0.591,0.234,0.887,0.749,0.887,1.544v5.508h-1.834v-6.094c0-0.177-0.091-0.284-0.271-0.319l-0.678-0.011h-2.364V-131.255"/>
</g>
<g id="PathID_110" transform="matrix(1.61146, 0, 0, 1.48451, 834.65, 421.45)">
	<path fill="#FFFFFF" d="M-165.565-131.255h-1.836v-6.424h-3.299v6.424h-1.834v-7.318h9.333c0.862,0,1.494,0.088,1.896,0.266
		c0.591,0.234,0.887,0.749,0.887,1.544v5.508h-1.836v-6.094c0-0.177-0.09-0.284-0.271-0.319l-0.676-0.011h-2.364V-131.255"/>
</g>
<g id="PathID_111" transform="matrix(1.61146, 0, 0, 1.48451, 921.7, 421.45)">
	<path fill="#FFFFFF" d="M-213.288-132.853v-3.91c0-0.795,0.291-1.31,0.874-1.544c0.403-0.178,1.035-0.266,1.896-0.266h1.429
		c0.863,0,1.494,0.088,1.896,0.266c0.584,0.234,0.874,0.749,0.874,1.544v3.696c0,0.796-0.291,1.31-0.874,1.545
		c-0.401,0.177-1.033,0.266-1.896,0.266h-1.429c-0.812,0-1.394-0.068-1.748-0.203C-212.948-131.713-213.288-132.178-213.288-132.853
		 M-208.153-137.349c0-0.177-0.087-0.284-0.258-0.319l-0.678-0.011h-1.429c-0.451,0-0.722,0.014-0.812,0.043
		c-0.082,0.035-0.123,0.131-0.123,0.287v4.879c0,0.178,0.086,0.281,0.258,0.309l0.677,0.011h1.429c0.46,0,0.751-0.017,0.875-0.053
		c0.04-0.029,0.061-0.118,0.061-0.267V-137.349"/>
</g>
</svg>
