<?xml version="1.0" encoding="utf-8"?>
<!-- Generator: Adobe Illustrator 13.0.0, SVG Export Plug-In . SVG Version: 6.00 Build 14948)  -->
<!DOCTYPE svg PUBLIC "-//W3C//DTD SVG 1.1//EN" "http://www.w3.org/Graphics/SVG/1.1/DTD/svg11.dtd">
<svg version="1.1" id="Layer_1" xmlns="http://www.w3.org/2000/svg" xmlns:xlink="http://www.w3.org/1999/xlink" x="0px" y="0px"
	 width="170px" height="70px" viewBox="446.926 248.516 170 70" enable-background="new 446.926 248.516 170 70"
	 xml:space="preserve">
<g>
	<g id="PathID_64" transform="matrix(1.35072, 0.0010023, -1.27123, -1.62923, 815.45, 300)">
		<path fill="#BABBBD" d="M-164.801,8.013l25.115,0.006l-5.327,19.449l-25.139-0.001L-164.801,8.013"/>
	</g>
	<g id="PathID_65" transform="matrix(1.35072, -0.000952591, -1.89658, 2.4307, 624.95, 54.6)">
		<path fill="#ED2A28" d="M60.817,82.447l25.143,0.004l-7.959,19.453L52.873,101.9L60.817,82.447"/>
	</g>
	<g id="PathID_66" transform="matrix(5.43599, 0, 0, 0.927101, 204.75, 324)">
		<path fill="#231F20" d="M50.703-36.8h25.12v19.459h-25.12V-36.8"/>
	</g>
	<g id="PathID_67" transform="matrix(0.742356, 0, 0, 2.77123, 136.75, 5)">
		<path fill="#231F20" d="M447.547,87.873h25.104v19.456h-25.104V87.873"/>
	</g>
	<g id="PathID_68" transform="matrix(1.35072, 0.000416822, -2.55914, 3.27985, 388.9, 52.7)">
		<path fill="#ED2A28" d="M207.186,61.562l25.134-0.001l-10.739,19.456l-25.122,0.001L207.186,61.562"/>
	</g>
	<g id="PathID_101" transform="matrix(0.8385, 0, 0, 0.917931, 992.05, 519.1)">
		<g id="XMLID_1_">
			<g>
				<path fill="#BABBBD" d="M-465.672-222.069c-0.543,0-0.953-0.16-1.25-0.497v0.419h-0.689v-4.74h0.755v1.692
					c0.312-0.31,0.715-0.47,1.212-0.47c0.27,0,0.522,0.048,0.779,0.137c0.242,0.082,0.441,0.209,0.603,0.362
					c0.143,0.151,0.276,0.332,0.375,0.549c0.084,0.219,0.13,0.453,0.13,0.711c0,0.576-0.19,1.046-0.573,1.364
					C-464.713-222.224-465.158-222.069-465.672-222.069z M-466.93-223.884c0,0.399,0.079,0.701,0.218,0.895
					c0.249,0.3,0.557,0.447,0.964,0.447c0.33,0,0.613-0.117,0.861-0.322c0.234-0.227,0.349-0.563,0.349-1.002
					c0-0.448-0.114-0.777-0.341-0.988c-0.243-0.218-0.511-0.318-0.837-0.318c-0.325,0-0.61,0.102-0.853,0.324
					C-466.809-224.626-466.93-224.309-466.93-223.884z"/>
				<path fill="#BABBBD" d="M-518.862-225.586h0.752v3.439h-0.674v-0.493c-0.338,0.383-0.813,0.57-1.413,0.57
					c-0.26,0-0.503-0.032-0.721-0.11c-0.24-0.078-0.385-0.191-0.515-0.293c-0.118-0.122-0.192-0.265-0.234-0.436
					c-0.022-0.107-0.036-0.295-0.036-0.542v-2.137h0.74v1.919c0,0.299,0.014,0.506,0.057,0.61c0.036,0.154,0.13,0.276,0.286,0.357
					c0.154,0.086,0.347,0.134,0.573,0.134s0.436-0.048,0.629-0.134c0.204-0.082,0.344-0.212,0.427-0.363
					c0.086-0.154,0.128-0.378,0.128-0.671V-225.586z"/>
				<path fill="#BABBBD" d="M-566.717-223.449v-2.137h0.752v1.919c0,0.299,0.014,0.506,0.044,0.61
					c0.028,0.154,0.14,0.276,0.291,0.357c0.172,0.086,0.358,0.134,0.583,0.134c0.218,0,0.427-0.048,0.621-0.134
					c0.204-0.082,0.352-0.212,0.427-0.363c0.083-0.154,0.133-0.378,0.133-0.671v-1.852h0.736v3.439h-0.657v-0.494
					c-0.347,0.384-0.819,0.571-1.416,0.571c-0.255,0-0.512-0.032-0.737-0.11c-0.221-0.078-0.391-0.191-0.497-0.293
					c-0.118-0.122-0.189-0.265-0.241-0.436C-566.706-223.015-566.717-223.202-566.717-223.449z"/>
				<path fill="#BABBBD" d="M-584.537-225.088c0.326-0.381,0.793-0.577,1.406-0.577c0.267,0,0.513,0.048,0.737,0.12
					c0.23,0.076,0.399,0.17,0.511,0.297c0.114,0.117,0.192,0.259,0.234,0.419c0.028,0.113,0.042,0.297,0.042,0.573v2.109h-0.753
					v-2.092c0-0.234-0.032-0.41-0.092-0.53c-0.054-0.111-0.16-0.213-0.31-0.283c-0.151-0.071-0.326-0.104-0.529-0.104
					c-0.317,0-0.593,0.08-0.827,0.24c-0.228,0.155-0.345,0.449-0.345,0.897v1.871h-0.751v-3.439h0.677V-225.088z"/>
				<path fill="#BABBBD" d="M-499.919-224.849c-0.261,0.223-0.38,0.54-0.38,0.986c0,0.439,0.119,0.776,0.38,1.002
					c0.236,0.201,0.542,0.318,0.925,0.318c0.377,0,0.689-0.117,0.931-0.318c0.248-0.227,0.376-0.567,0.376-1.019
					c0-0.429-0.128-0.746-0.376-0.969c-0.252-0.216-0.56-0.317-0.931-0.317C-499.377-225.166-499.682-225.065-499.919-224.849z
					 M-500.506-222.528c-0.38-0.306-0.571-0.751-0.571-1.335c0-0.634,0.229-1.116,0.682-1.418c0.382-0.247,0.863-0.384,1.4-0.384
					c0.608,0,1.111,0.161,1.498,0.47c0.394,0.316,0.586,0.732,0.586,1.288c0,0.448-0.089,0.792-0.246,1.049
					c-0.184,0.247-0.436,0.448-0.763,0.592c-0.332,0.128-0.689,0.197-1.075,0.197C-499.615-222.069-500.112-222.224-500.506-222.528
					z"/>
				<path fill="#BABBBD" d="M-516.196-224.018v1.871h-0.743v-3.439h0.677v0.498c0.328-0.381,0.795-0.577,1.41-0.577
					c0.271,0,0.511,0.048,0.735,0.12c0.226,0.076,0.399,0.17,0.502,0.297c0.12,0.117,0.185,0.259,0.241,0.419
					c0.028,0.113,0.044,0.297,0.044,0.573v2.109h-0.755v-2.092c0-0.234-0.033-0.41-0.089-0.53c-0.059-0.111-0.163-0.213-0.313-0.283
					c-0.151-0.071-0.333-0.104-0.533-0.104c-0.313,0-0.591,0.08-0.825,0.24C-516.07-224.76-516.196-224.466-516.196-224.018z"/>
				<path fill="#BABBBD" d="M-494.941-224.915c-0.222,0.155-0.346,0.449-0.346,0.897v1.871h-0.757v-3.439h0.687v0.498
					c0.319-0.381,0.791-0.577,1.405-0.577c0.267,0,0.507,0.048,0.721,0.12c0.249,0.076,0.408,0.17,0.525,0.297
					c0.115,0.117,0.19,0.259,0.233,0.419c0.027,0.113,0.033,0.297,0.033,0.573v2.109h-0.737v-2.092c0-0.234-0.054-0.41-0.098-0.53
					c-0.058-0.111-0.158-0.213-0.302-0.283c-0.16-0.071-0.333-0.104-0.537-0.104C-494.438-225.155-494.708-225.076-494.941-224.915z
					"/>
				<path fill="#BABBBD" d="M-589.315-223.337c-0.066,0.077-0.1,0.177-0.1,0.274c0,0.155,0.074,0.287,0.228,0.387
					c0.148,0.105,0.372,0.148,0.669,0.148c0.289,0,0.545-0.038,0.769-0.145c0.228-0.093,0.395-0.228,0.501-0.394
					c0.082-0.136,0.118-0.32,0.118-0.586v-0.215c-0.274,0.081-0.683,0.153-1.23,0.218c-0.312,0.04-0.533,0.077-0.661,0.124
					C-589.151-223.494-589.249-223.423-589.315-223.337z M-588.703-222.069c-0.483,0-0.859-0.086-1.123-0.267
					c-0.261-0.191-0.393-0.424-0.393-0.715c0-0.166,0.048-0.318,0.141-0.459c0.102-0.139,0.232-0.244,0.394-0.321
					c0.164-0.098,0.344-0.172,0.545-0.202c0.146-0.024,0.367-0.061,0.671-0.09c0.607-0.055,1.055-0.127,1.338-0.204l0.008-0.145
					c0-0.242-0.072-0.402-0.218-0.509c-0.19-0.116-0.473-0.185-0.851-0.185c-0.359,0-0.621,0.035-0.787,0.143
					c-0.17,0.093-0.294,0.256-0.372,0.5l-0.737-0.077c0.068-0.24,0.178-0.448,0.328-0.595c0.156-0.156,0.379-0.26,0.671-0.339
					c0.288-0.083,0.623-0.131,1.003-0.131c0.38,0,0.687,0.048,0.921,0.118c0.242,0.055,0.419,0.151,0.529,0.256
					c0.11,0.096,0.19,0.231,0.234,0.388c0.028,0.106,0.044,0.283,0.044,0.55v0.772c0,0.537,0.012,0.883,0.04,1.033
					c0.034,0.143,0.098,0.281,0.192,0.4h-0.787c-0.078-0.114-0.128-0.257-0.148-0.423c-0.281,0.183-0.553,0.32-0.815,0.396
					C-588.132-222.097-588.408-222.069-588.703-222.069z"/>
				<path fill="#BABBBD" d="M-573.884-225.174c-0.345,0-0.637,0.085-0.869,0.264c-0.234,0.183-0.365,0.416-0.387,0.715h2.478
					c-0.034-0.286-0.128-0.503-0.284-0.654C-573.187-225.071-573.499-225.174-573.884-225.174z M-573.85-222.069
					c-0.648,0-1.162-0.155-1.542-0.459c-0.38-0.306-0.57-0.745-0.57-1.303c0-0.581,0.19-1.029,0.57-1.343
					c0.385-0.331,0.885-0.492,1.5-0.492c0.597,0,1.083,0.161,1.456,0.47c0.38,0.32,0.569,0.768,0.569,1.328l-0.008,0.15h-3.308
					c0.022,0.374,0.156,0.671,0.401,0.879c0.252,0.199,0.565,0.296,0.941,0.296c0.271,0,0.505-0.059,0.701-0.166
					c0.196-0.114,0.351-0.295,0.469-0.552l0.779,0.078c-0.123,0.361-0.351,0.636-0.687,0.813
					C-572.907-222.162-573.331-222.069-573.85-222.069z"/>
				<path fill="#BABBBD" d="M-475.756-224.91c-0.202,0.155-0.31,0.418-0.31,0.779v1.984h-0.761v-2.235
					c0-0.254-0.063-0.452-0.186-0.589c-0.115-0.117-0.318-0.184-0.603-0.184c-0.21,0-0.408,0.033-0.593,0.132
					c-0.184,0.084-0.304,0.202-0.396,0.38c-0.073,0.168-0.112,0.405-0.112,0.715v1.782h-0.755v-3.439h0.667v0.49
					c0.14-0.177,0.325-0.304,0.556-0.409c0.232-0.105,0.509-0.161,0.802-0.161c0.33,0,0.599,0.06,0.805,0.164
					c0.212,0.105,0.366,0.255,0.439,0.441c0.362-0.401,0.835-0.605,1.388-0.605c0.452,0,0.781,0.091,1.037,0.29
					c0.234,0.18,0.344,0.476,0.344,0.877v2.351h-0.737v-2.162c0-0.229-0.015-0.401-0.085-0.513
					c-0.048-0.094-0.126-0.176-0.266-0.238c-0.13-0.07-0.292-0.096-0.448-0.096C-475.286-225.155-475.546-225.074-475.756-224.91z"
					/>
				<path fill="#BABBBD" d="M-454.126-224.195c-0.034-0.286-0.13-0.503-0.296-0.654c-0.226-0.222-0.536-0.324-0.927-0.324
					c-0.345,0-0.623,0.085-0.876,0.264c-0.228,0.183-0.37,0.416-0.385,0.715H-454.126z M-456.852-222.528
					c-0.385-0.306-0.578-0.745-0.578-1.303c0-0.581,0.192-1.029,0.578-1.343c0.382-0.331,0.889-0.492,1.5-0.492
					c0.593,0,1.078,0.161,1.452,0.47c0.379,0.32,0.571,0.768,0.571,1.328l-0.009,0.15h-3.308c0.02,0.374,0.155,0.671,0.401,0.879
					c0.238,0.199,0.566,0.296,0.939,0.296c0.268,0,0.522-0.059,0.717-0.166c0.201-0.114,0.338-0.295,0.455-0.552l0.781,0.078
					c-0.128,0.361-0.352,0.636-0.689,0.813c-0.326,0.209-0.743,0.301-1.271,0.301C-455.953-222.069-456.477-222.224-456.852-222.528
					z"/>
				<path fill="#BABBBD" d="M-511.86-221.029c-0.321-0.172-0.481-0.452-0.466-0.829l0.736,0.078
					c0.028,0.185,0.107,0.307,0.249,0.384c0.185,0.119,0.436,0.172,0.763,0.172c0.363,0,0.613-0.053,0.805-0.172
					c0.188-0.102,0.312-0.25,0.382-0.453c0.042-0.107,0.057-0.37,0.057-0.744c-0.335,0.301-0.736,0.446-1.226,0.446
					c-0.616,0-1.102-0.166-1.422-0.513c-0.331-0.334-0.498-0.748-0.498-1.22c0-0.324,0.087-0.622,0.226-0.906
					c0.157-0.281,0.378-0.5,0.672-0.65c0.288-0.15,0.631-0.229,1.027-0.229c0.535,0,0.961,0.164,1.288,0.503v-0.424h0.705v2.985
					c0,0.532-0.062,0.903-0.215,1.129c-0.14,0.227-0.363,0.407-0.681,0.545c-0.289,0.121-0.663,0.186-1.112,0.186
					C-511.1-220.741-511.533-220.832-511.86-221.029z M-509.625-224.849c-0.246-0.218-0.539-0.317-0.879-0.317
					c-0.347,0-0.618,0.095-0.855,0.311c-0.224,0.212-0.341,0.526-0.341,0.93c0,0.467,0.118,0.786,0.341,0.997
					c0.231,0.193,0.508,0.302,0.876,0.302c0.341,0,0.624-0.11,0.866-0.302c0.24-0.211,0.347-0.53,0.347-0.975
					C-509.27-224.328-509.385-224.636-509.625-224.849z"/>
				<path fill="#BABBBD" d="M-547.419-222.147h-0.825l-2.4-4.74h0.893l1.591,3.449c0.132,0.277,0.236,0.535,0.332,0.773
					c0.092-0.252,0.206-0.519,0.324-0.773l1.663-3.449h0.832L-547.419-222.147z"/>
				<path fill="#BABBBD" d="M-484.727-225.155c-0.212,0-0.406,0.033-0.592,0.132c-0.19,0.084-0.305,0.202-0.394,0.38
					c-0.073,0.168-0.112,0.405-0.112,0.715v1.782h-0.757v-3.439h0.667v0.49c0.14-0.177,0.327-0.304,0.556-0.409
					c0.229-0.105,0.507-0.161,0.805-0.161c0.327,0,0.597,0.06,0.8,0.164c0.206,0.105,0.366,0.255,0.464,0.441l0.346,0.214
					c-0.157,0.16-0.238,0.4-0.238,0.715v1.984h-0.755v-2.235c0-0.254-0.061-0.452-0.194-0.589
					C-484.242-225.088-484.444-225.155-484.727-225.155z"/>
				<path fill="#BABBBD" d="M-472.071-222.528c-0.382-0.306-0.572-0.751-0.572-1.335c0-0.634,0.245-1.116,0.692-1.418
					c0.381-0.247,0.847-0.384,1.401-0.384c0.606,0,1.122,0.161,1.511,0.47c0.381,0.316,0.575,0.732,0.575,1.288
					c0,0.448-0.09,0.792-0.262,1.049c-0.176,0.247-0.423,0.448-0.758,0.592c-0.323,0.128-0.681,0.197-1.066,0.197
					C-471.178-222.069-471.682-222.224-472.071-222.528z M-470.55-225.166c-0.383,0-0.7,0.101-0.939,0.317
					c-0.247,0.223-0.373,0.54-0.373,0.986c0,0.439,0.126,0.776,0.373,1.002c0.239,0.201,0.556,0.318,0.939,0.318
					c0.372,0,0.681-0.117,0.932-0.318c0.247-0.227,0.385-0.567,0.385-1.019c0-0.429-0.139-0.746-0.385-0.969
					C-469.882-225.065-470.184-225.166-470.55-225.166z"/>
				<path fill="#BABBBD" d="M-542.13-224.849c-0.227-0.222-0.537-0.324-0.926-0.324c-0.344,0-0.62,0.085-0.875,0.264
					c-0.232,0.183-0.344,0.416-0.385,0.715h2.482C-541.864-224.481-541.964-224.698-542.13-224.849z M-544.565-222.528
					c-0.382-0.306-0.571-0.745-0.571-1.303c0-0.581,0.189-1.029,0.571-1.343c0.385-0.331,0.894-0.492,1.504-0.492
					c0.595,0,1.078,0.161,1.452,0.47c0.38,0.32,0.57,0.768,0.57,1.328l-0.006,0.15h-3.31c0.022,0.374,0.16,0.671,0.399,0.879
					c0.243,0.199,0.567,0.296,0.941,0.296c0.274,0,0.519-0.059,0.701-0.166c0.191-0.114,0.353-0.295,0.471-0.552l0.779,0.078
					c-0.123,0.361-0.352,0.636-0.691,0.813c-0.321,0.209-0.733,0.301-1.268,0.301C-543.664-222.069-544.182-222.224-544.565-222.528
					z"/>
				<path fill="#BABBBD" d="M-554.904-225.524c0.212,0.084,0.39,0.204,0.533,0.35v-1.713h0.741v4.74h-0.701v-0.421
					c-0.289,0.336-0.702,0.499-1.261,0.499c-0.337,0-0.666-0.072-0.96-0.222c-0.303-0.154-0.531-0.368-0.694-0.624
					c-0.162-0.277-0.24-0.587-0.24-0.947c0-0.334,0.065-0.639,0.215-0.928c0.151-0.283,0.375-0.496,0.665-0.646
					c0.302-0.15,0.645-0.229,0.989-0.229C-555.34-225.665-555.108-225.616-554.904-225.524z M-554.309-223.809
					c0-0.466-0.121-0.817-0.36-1.04c-0.235-0.216-0.537-0.317-0.868-0.317c-0.337,0-0.61,0.095-0.835,0.311
					c-0.231,0.212-0.34,0.544-0.34,0.999c0,0.442,0.116,0.778,0.372,0.996c0.234,0.201,0.508,0.318,0.843,0.318
					c0.339,0,0.609-0.098,0.839-0.311C-554.427-223.063-554.309-223.375-554.309-223.809z"/>
				<path fill="#BABBBD" d="M-452.402-222.147v-3.439h0.66v0.498c0.33-0.381,0.795-0.577,1.408-0.577c0.26,0,0.514,0.048,0.74,0.12
					c0.227,0.076,0.395,0.17,0.507,0.297c0.114,0.117,0.186,0.259,0.248,0.419c0.02,0.113,0.028,0.297,0.028,0.573v2.109h-0.752
					v-2.092c0-0.234-0.03-0.41-0.105-0.53c-0.045-0.111-0.141-0.213-0.299-0.283c-0.148-0.071-0.324-0.104-0.529-0.104
					c-0.31,0-0.589,0.08-0.827,0.24c-0.226,0.155-0.346,0.449-0.346,0.897v1.871H-452.402z"/>
				<path fill="#BABBBD" d="M-539.385-222.147h-0.759v-3.439h0.681v0.527c0.174-0.246,0.335-0.406,0.473-0.485
					c0.15-0.072,0.313-0.12,0.488-0.12c0.255,0,0.511,0.066,0.778,0.191l-0.269,0.546c-0.184-0.083-0.369-0.132-0.533-0.132
					c-0.176,0-0.33,0.045-0.464,0.119c-0.126,0.079-0.218,0.181-0.275,0.315c-0.063,0.207-0.12,0.437-0.12,0.683V-222.147z"/>
				<path fill="#BABBBD" d="M-536.547-223.929v1.782h-0.762v-3.439h0.667v0.49c0.14-0.177,0.324-0.304,0.553-0.409
					c0.235-0.105,0.519-0.161,0.805-0.161c0.33,0,0.6,0.06,0.809,0.164c0.205,0.105,0.358,0.255,0.443,0.441l0.352,0.214
					c-0.162,0.16-0.229,0.4-0.229,0.715v1.984h-0.755v-2.235c0-0.254-0.063-0.452-0.186-0.589c-0.112-0.117-0.316-0.184-0.601-0.184
					c-0.213,0-0.41,0.033-0.595,0.132c-0.179,0.084-0.304,0.202-0.396,0.38C-536.516-224.476-536.547-224.238-536.547-223.929z"/>
				<path fill="#BABBBD" d="M-561.28-225.088c0.318-0.381,0.795-0.577,1.407-0.577c0.267,0,0.512,0.048,0.749,0.12
					c0.218,0.076,0.399,0.17,0.498,0.297c0.116,0.117,0.19,0.259,0.232,0.419c0.022,0.113,0.034,0.297,0.034,0.573v2.109h-0.738
					v-2.092c0-0.234-0.02-0.41-0.096-0.53c-0.056-0.111-0.167-0.213-0.307-0.283c-0.155-0.071-0.33-0.104-0.532-0.104
					c-0.323,0-0.595,0.08-0.825,0.24c-0.229,0.155-0.352,0.449-0.352,0.897v1.871h-0.751v-3.439h0.681V-225.088z"/>
				<path fill="#BABBBD" d="M-579.817-222.292c-0.296-0.154-0.525-0.368-0.687-0.624c-0.162-0.277-0.242-0.587-0.242-0.947
					c0-0.334,0.072-0.639,0.218-0.928c0.15-0.283,0.373-0.496,0.671-0.646c0.294-0.15,0.623-0.229,0.986-0.229
					c0.268,0,0.505,0.049,0.711,0.141c0.212,0.084,0.385,0.204,0.519,0.35v-1.713h0.755v4.74h-0.705v-0.421
					c-0.286,0.336-0.701,0.499-1.246,0.499C-579.19-222.069-579.516-222.141-579.817-222.292z M-577.926-224.849
					c-0.234-0.216-0.523-0.317-0.871-0.317c-0.334,0-0.613,0.095-0.837,0.311c-0.224,0.212-0.335,0.544-0.335,0.999
					c0,0.442,0.124,0.778,0.362,0.996c0.239,0.201,0.523,0.318,0.853,0.318s0.609-0.098,0.839-0.311
					c0.234-0.21,0.351-0.521,0.351-0.955C-577.565-224.275-577.684-224.626-577.926-224.849z"/>
				<path fill="#BABBBD" d="M-524.31-222.664l0.113,0.515c-0.211,0.038-0.401,0.054-0.568,0.054c-0.274,0-0.483-0.024-0.636-0.095
					c-0.151-0.071-0.254-0.154-0.324-0.269c-0.057-0.101-0.085-0.329-0.085-0.685v-1.987h-0.564v-0.455h0.564v-0.846l0.755-0.349
					v1.195h0.745v0.455h-0.745v2.016c0,0.155,0.009,0.272,0.031,0.328c0.027,0.037,0.07,0.081,0.119,0.106
					c0.077,0.021,0.16,0.045,0.275,0.045C-524.55-222.636-524.436-222.64-524.31-222.664z"/>
				<rect x="-459" y="-226.859" fill="#BABBBD" width="0.635" height="0.616"/>
				<rect x="-488.634" y="-226.692" fill="#BABBBD" width="0.68" height="4.351"/>
				<rect x="-530.129" y="-226.859" fill="#BABBBD" width="0.64" height="0.616"/>
				<path fill="#BABBBD" d="M-534.031-225.06c0.354-0.401,0.807-0.605,1.382-0.605c0.45,0,0.78,0.091,1.023,0.29
					c0.246,0.18,0.36,0.476,0.36,0.877v2.351H-532v-2.162c0-0.229-0.051-0.401-0.093-0.513c-0.05-0.094-0.148-0.176-0.268-0.238
					c-0.13-0.07-0.277-0.096-0.46-0.096c-0.303,0-0.559,0.082-0.783,0.246c-0.028,0.02-0.051,0.041-0.076,0.064L-534.031-225.06z"/>
				<rect x="-462.783" y="-225.445" fill="#BABBBD" width="0.632" height="3.157"/>
				<path fill="#BABBBD" d="M-526.65-222.664l0.084,0.515c-0.21,0.038-0.397,0.054-0.567,0.054c-0.274,0-0.481-0.024-0.637-0.095
					c-0.151-0.071-0.252-0.154-0.321-0.269c-0.057-0.101-0.087-0.329-0.087-0.685v-1.987h-0.561v-0.455h0.561v-0.846l0.755-0.349
					v1.195h0.774v0.455h-0.774v2.016c0,0.155,0.014,0.272,0.033,0.328c0.029,0.037,0.071,0.081,0.147,0.106
					c0.05,0.021,0.134,0.045,0.246,0.045C-526.915-222.636-526.804-222.64-526.65-222.664z"/>
				<path fill="#BABBBD" d="M-482.078-225.155c-0.316,0-0.582,0.082-0.792,0.246c-0.026,0.02-0.049,0.041-0.073,0.064l-0.346-0.214
					c0.335-0.401,0.809-0.605,1.386-0.605c0.43,0,0.757,0.091,1.009,0.29c0.239,0.18,0.374,0.476,0.374,0.877v2.351h-0.765v-2.162
					c0-0.229-0.02-0.401-0.082-0.513c-0.045-0.094-0.132-0.176-0.262-0.238C-481.764-225.13-481.904-225.155-482.078-225.155z"/>
				<path fill="#BABBBD" d="M-503.855-222.147l-1.693-3.439h0.805l0.958,2.067c0.106,0.222,0.195,0.453,0.294,0.689
					c0.056-0.176,0.147-0.394,0.276-0.655l0.986-2.101h0.777l-1.696,3.439H-503.855z"/>
				<polygon fill="#BABBBD" points="-591.21,-226.886 -591.21,-222.147 -592.021,-222.147 -592.021,-224.388 -595.203,-224.388 
					-595.203,-222.147 -596.015,-222.147 -596.015,-226.886 -595.203,-226.886 -595.203,-224.945 -592.021,-224.945 
					-592.021,-226.886 				"/>
				<rect x="-462.783" y="-226.859" fill="#BABBBD" width="0.632" height="0.616"/>
				<rect x="-570.911" y="-226.692" fill="#BABBBD" width="0.631" height="4.351"/>
				<rect x="-523.536" y="-226.692" fill="#BABBBD" width="0.633" height="4.351"/>
				<rect x="-460.915" y="-226.692" fill="#BABBBD" width="0.631" height="4.351"/>
				<rect x="-459" y="-225.445" fill="#BABBBD" width="0.635" height="3.157"/>
				<rect x="-530.129" y="-225.445" fill="#BABBBD" width="0.64" height="3.157"/>
			</g>
			<g>
			</g>
		</g>
	</g>
	<g id="PathID_102" transform="matrix(1.61146, 0, 0, 1.48451, 401.3, 421.45)">
		<path fill="#FFFFFF" d="M74.139-80.658v0.546h-4.075v-5.903h1.248v5.357H74.139"/>
	</g>
	<g id="PathID_103" transform="matrix(1.61146, 0, 0, 1.48451, 443.95, 421.45)">
		<path fill="#FFFFFF" d="M47.936-80.112v-4.436h1.268v4.436H47.936 M49.204-85.172h-1.268v-0.844h1.268V-85.172"/>
	</g>
	<g id="PathID_104" transform="matrix(1.61146, 0, 0, 1.48451, 463.35, 421.45)">
		<path fill="#FFFFFF" d="M42.681-80.112h-1.245v-3.91h-2.249v3.91h-1.245v-4.457h6.355c0.594,0,1.021,0.064,1.278,0.168
			c0.405,0.141,0.607,0.457,0.607,0.935v3.354h-1.245v-3.702c0-0.115-0.049-0.175-0.19-0.203l-0.45-0.005h-1.616V-80.112"/>
	</g>
	<g id="PathID_105" transform="matrix(1.61146, 0, 0, 1.48451, 550.4, 421.45)">
		<path fill="#FFFFFF" d="M-5.175-80.112c-0.594,0-1.019-0.051-1.277-0.155c-0.401-0.153-0.601-0.457-0.601-0.947v-0.247
			c0-0.49,0.2-0.806,0.601-0.947c0.258-0.104,0.684-0.156,1.277-0.156h1.617v-1.25c0-0.115-0.072-0.175-0.189-0.203l-0.466-0.005
			h-0.962c-0.308,0-0.497,0.006-0.545,0.031c-0.066,0.016-0.088,0.071-0.088,0.177v0.663h-1.245v-0.315
			c0-0.478,0.2-0.793,0.601-0.935c0.258-0.104,0.684-0.168,1.277-0.168h0.962c0.593,0,1.019,0.064,1.3,0.168
			c0.399,0.141,0.6,0.457,0.6,0.935v3.354H-5.175 M-5.175-82.017c-0.308,0-0.497,0.008-0.545,0.023
			c-0.066,0.025-0.088,0.079-0.088,0.173v0.971c0,0.105,0.046,0.175,0.183,0.187l0.45,0.005h1.617v-1.359H-5.175"/>
	</g>
	<g id="PathID_106" transform="matrix(1.61146, 0, 0, 1.48451, 603.4, 421.45)">
		<path fill="#FFFFFF" d="M-33.15-80.112h-1.245v-4.457h2.839c0.593,0,1.019,0.064,1.301,0.168c0.399,0.141,0.599,0.457,0.599,0.935
			v3.354h-1.268v-3.702c0-0.115-0.045-0.175-0.16-0.203l-0.472-0.005h-1.594V-80.112"/>
	</g>
	<g id="PathID_107" transform="matrix(1.61146, 0, 0, 1.48451, 656.85, 421.45)">
		<path fill="#FFFFFF" d="M-62.05-80.112v-4.436h1.245v4.436H-62.05 M-60.806-85.172h-1.245v-0.844h1.245V-85.172"/>
	</g>
	<g id="PathID_108" transform="matrix(1.61146, 0, 0, 1.48451, 716.65, 421.45)">
		<path fill="#FFFFFF" d="M-92.916-80.663h0.632v-4.801h-0.632v-0.552h2.511v0.552h-0.633v4.801h0.633v0.551h-2.511V-80.663"/>
	</g>
	<g id="PathID_109" transform="matrix(1.61146, 0, 0, 1.48451, 747.6, 421.45)">
		<path fill="#FFFFFF" d="M-104.166-80.112h-1.245v-3.91h-2.248v3.91h-1.246v-4.457h6.356c0.57,0,1.018,0.064,1.277,0.168
			c0.404,0.141,0.606,0.457,0.606,0.935v3.354h-1.245v-3.702c0-0.115-0.07-0.175-0.188-0.203l-0.45-0.005h-1.617V-80.112"/>
	</g>
	<g id="PathID_110" transform="matrix(1.61146, 0, 0, 1.48451, 834.65, 421.45)">
		<path fill="#FFFFFF" d="M-149.134-80.112h-1.246v-3.91h-2.248v3.91h-1.245v-4.457h6.333c0.593,0,1.019,0.064,1.3,0.168
			c0.404,0.141,0.606,0.457,0.606,0.935v3.354h-1.245v-3.702c0-0.115-0.07-0.175-0.188-0.203l-0.472-0.005h-1.594V-80.112"/>
	</g>
	<g id="PathID_111" transform="matrix(1.61146, 0, 0, 1.48451, 921.7, 421.45)">
		<path fill="#FFFFFF" d="M-198.884-81.083v-2.384c0-0.478,0.2-0.793,0.6-0.935c0.281-0.104,0.707-0.168,1.3-0.168h0.962
			c0.593,0,1.019,0.064,1.3,0.168c0.378,0.141,0.576,0.457,0.576,0.935v2.252c0,0.489-0.199,0.793-0.576,0.947
			c-0.282,0.105-0.708,0.155-1.3,0.155h-0.962c-0.568,0-0.966-0.041-1.2-0.126C-198.635-80.39-198.884-80.671-198.884-81.083
			 M-195.389-83.815c0-0.115-0.047-0.175-0.16-0.203l-0.473-0.005h-0.962c-0.308,0-0.496,0.006-0.568,0.031
			c-0.042,0.016-0.065,0.071-0.065,0.177v2.964c0,0.105,0.045,0.175,0.161,0.187l0.472,0.005h0.962c0.311,0,0.511-0.008,0.599-0.024
			c0.022-0.025,0.033-0.077,0.033-0.168V-83.815"/>
	</g>
</g>
</svg>
